<svg xmlns="http://www.w3.org/2000/svg" width="420" height="880" viewBox="0 0 420 880" font-family="Space Grotesk, 'Segoe UI', sans-serif">
<rect width="420" height="880" fill="#000000"/>
<rect x="10" y="10" width="400" height="860" rx="42" fill="#000000" stroke="#2A2A2A" stroke-width="2"/>
<text x="48" y="56" fill="#FFFFFF" font-size="17" font-weight="700">TJ</text>
<text x="210" y="56" fill="#E6E6E6" font-size="19" font-weight="700" text-anchor="middle" letter-spacing="0.8">Home</text>
<line x1="350" y1="36" x2="384" y2="36" stroke="#8C8C8C" stroke-width="2"/>
<line x1="350" y1="62" x2="384" y2="62" stroke="#8C8C8C" stroke-width="2"/>
<line x1="354" y1="32" x2="354" y2="66" stroke="#8C8C8C" stroke-width="2"/>
<line x1="380" y1="32" x2="380" y2="66" stroke="#8C8C8C" stroke-width="2"/>
<circle cx="367" cy="43" r="1.6" fill="#B8B8B8"/>
<circle cx="367" cy="49" r="1.6" fill="#B8B8B8"/>
<circle cx="367" cy="55" r="1.6" fill="#B8B8B8"/>
<g transform="rotate(-1.1 105.5 101.0)">
<rect x="40" y="78" width="131" height="46" fill="#111111"/>
<line x1="36" y1="78" x2="175" y2="78" stroke="#8C8C8C" stroke-width="2"/>
<line x1="36" y1="124" x2="175" y2="124" stroke="#8C8C8C" stroke-width="2"/>
<line x1="40" y1="74" x2="40" y2="128" stroke="#8C8C8C" stroke-width="2"/>
<line x1="171" y1="74" x2="171" y2="128" stroke="#8C8C8C" stroke-width="2"/>
<rect x="52" y="91" width="5" height="5" fill="#3A3A3A"/>
<text x="62" y="96" fill="#6E6E6E" font-size="9" letter-spacing="1">WIN RATE</text>
<text x="52" y="116" fill="#B8B8B8" font-size="18" font-weight="700">58%</text>
</g>
<g transform="rotate(0.9 281.5 104.0)">
<rect x="183" y="81" width="197" height="46" fill="#111111"/>
<line x1="179" y1="81" x2="384" y2="81" stroke="#8C8C8C" stroke-width="2"/>
<line x1="179" y1="127" x2="384" y2="127" stroke="#8C8C8C" stroke-width="2"/>
<line x1="183" y1="77" x2="183" y2="131" stroke="#8C8C8C" stroke-width="2"/>
<line x1="380" y1="77" x2="380" y2="131" stroke="#8C8C8C" stroke-width="2"/>
<rect x="195" y="94" width="5" height="5" fill="#A8FF60"/>
<text x="205" y="99" fill="#6E6E6E" font-size="9" letter-spacing="1">EXPECTANCY</text>
<text x="195" y="119" fill="#A8FF60" font-size="18" font-weight="700">0.42R</text>
</g>
<g transform="rotate(1.2 145.0 159.0)">
<rect x="40" y="136" width="210" height="46" fill="#111111"/>
<line x1="36" y1="136" x2="254" y2="136" stroke="#8C8C8C" stroke-width="2"/>
<line x1="36" y1="182" x2="254" y2="182" stroke="#8C8C8C" stroke-width="2"/>
<line x1="40" y1="132" x2="40" y2="186" stroke="#8C8C8C" stroke-width="2"/>
<line x1="250" y1="132" x2="250" y2="186" stroke="#8C8C8C" stroke-width="2"/>
<rect x="52" y="149" width="5" height="5" fill="#A8FF60"/>
<text x="62" y="154" fill="#6E6E6E" font-size="9" letter-spacing="1">TOTAL R</text>
<text x="52" y="174" fill="#A8FF60" font-size="18" font-weight="700">+124.6R</text>
</g>
<g transform="rotate(-0.8 321.0 163.0)">
<rect x="262" y="140" width="118" height="46" fill="#111111"/>
<line x1="258" y1="140" x2="384" y2="140" stroke="#8C8C8C" stroke-width="2"/>
<line x1="258" y1="186" x2="384" y2="186" stroke="#8C8C8C" stroke-width="2"/>
<line x1="262" y1="136" x2="262" y2="190" stroke="#8C8C8C" stroke-width="2"/>
<line x1="380" y1="136" x2="380" y2="190" stroke="#8C8C8C" stroke-width="2"/>
<rect x="274" y="153" width="5" height="5" fill="#3A3A3A"/>
<text x="284" y="158" fill="#6E6E6E" font-size="9" letter-spacing="1">PROFIT FACTOR</text>
<text x="274" y="178" fill="#B8B8B8" font-size="18" font-weight="700">1.86</text>
</g>
<g transform="rotate(-1.3 94.0 222.0)">
<rect x="40" y="199" width="108" height="46" fill="#111111"/>
<line x1="36" y1="199" x2="152" y2="199" stroke="#8C8C8C" stroke-width="2"/>
<line x1="36" y1="245" x2="152" y2="245" stroke="#8C8C8C" stroke-width="2"/>
<line x1="40" y1="195" x2="40" y2="249" stroke="#8C8C8C" stroke-width="2"/>
<line x1="148" y1="195" x2="148" y2="249" stroke="#8C8C8C" stroke-width="2"/>
<rect x="52" y="212" width="5" height="5" fill="#3A3A3A"/>
<text x="62" y="217" fill="#6E6E6E" font-size="9" letter-spacing="1">TRADES</text>
<text x="52" y="237" fill="#B8B8B8" font-size="18" font-weight="700">213</text>
</g>
<g transform="rotate(1.0 270.0 220.0)">
<rect x="160" y="197" width="220" height="46" fill="#111111"/>
<line x1="156" y1="197" x2="384" y2="197" stroke="#8C8C8C" stroke-width="2"/>
<line x1="156" y1="243" x2="384" y2="243" stroke="#8C8C8C" stroke-width="2"/>
<line x1="160" y1="193" x2="160" y2="247" stroke="#8C8C8C" stroke-width="2"/>
<line x1="380" y1="193" x2="380" y2="247" stroke="#8C8C8C" stroke-width="2"/>
<rect x="172" y="210" width="5" height="5" fill="#FF7A7A"/>
<text x="182" y="215" fill="#6E6E6E" font-size="9" letter-spacing="1">MAX DD</text>
<text x="172" y="235" fill="#FF7A7A" font-size="18" font-weight="700">-18.3R</text>
</g>
<g transform="rotate(-1.0 210.0 341.0)">
<rect x="40" y="262" width="340" height="158" fill="#0A0A0A"/>
<line x1="36" y1="262" x2="384" y2="262" stroke="#8C8C8C" stroke-width="2"/>
<line x1="36" y1="420" x2="384" y2="420" stroke="#8C8C8C" stroke-width="2"/>
<line x1="40" y1="258" x2="40" y2="424" stroke="#8C8C8C" stroke-width="2"/>
<line x1="380" y1="258" x2="380" y2="424" stroke="#8C8C8C" stroke-width="2"/>
<text x="56" y="286" fill="#FFFFFF" font-size="12" font-weight="700" letter-spacing="1">EQUITY CURVE</text>
<text x="364" y="286" fill="#6E6E6E" font-size="10" text-anchor="end">TOTAL R</text>
<polygon points="56,392 56.0,304.1 64.8,307.4 73.6,300.5 82.4,305.6 91.2,301.0 100.0,300.0 108.8,305.3 117.6,301.4 126.4,307.1 135.2,304.7 144.0,309.7 152.8,314.4 161.6,329.4 170.4,336.3 179.2,357.5 188.0,376.8 196.8,387.7 205.6,392.0 214.4,386.6 223.2,385.0 232.0,371.4 240.8,376.9 249.6,365.7 258.4,366.3 267.2,369.8 276.0,373.9 284.8,374.0 293.6,363.7 302.4,366.5 311.2,361.1 320.0,354.4 328.8,353.2 337.6,348.5 346.4,353.7 355.2,358.9 364.0,361.2 364,392" fill="#A8FF60" opacity="0.06"/>
<polyline points="56.0,304.1 64.8,307.4 73.6,300.5 82.4,305.6 91.2,301.0 100.0,300.0 108.8,305.3 117.6,301.4 126.4,307.1 135.2,304.7 144.0,309.7 152.8,314.4 161.6,329.4 170.4,336.3 179.2,357.5 188.0,376.8 196.8,387.7 205.6,392.0 214.4,386.6 223.2,385.0 232.0,371.4 240.8,376.9 249.6,365.7 258.4,366.3 267.2,369.8 276.0,373.9 284.8,374.0 293.6,363.7 302.4,366.5 311.2,361.1 320.0,354.4 328.8,353.2 337.6,348.5 346.4,353.7 355.2,358.9 364.0,361.2" fill="none" stroke="#A8FF60" stroke-width="2"/>
<text x="56" y="410" fill="#6E6E6E" font-size="9">9 NOV</text>
<text x="364" y="410" fill="#6E6E6E" font-size="9" text-anchor="end">TODAY</text>
</g>
<g transform="rotate(-1.5 122.0 525.0)">
<rect x="40" y="434" width="164" height="182" fill="#0A0A0A"/>
<line x1="36" y1="434" x2="208" y2="434" stroke="#8C8C8C" stroke-width="2"/>
<line x1="36" y1="616" x2="208" y2="616" stroke="#8C8C8C" stroke-width="2"/>
<line x1="40" y1="430" x2="40" y2="620" stroke="#8C8C8C" stroke-width="2"/>
<line x1="204" y1="430" x2="204" y2="620" stroke="#8C8C8C" stroke-width="2"/>
<text x="52" y="456" fill="#FFFFFF" font-size="11" font-weight="700" letter-spacing="0.8">MONTHLY R</text>
<rect x="58.2" y="535.6" width="14.2" height="25.4" fill="#A8FF60" opacity="0.85"/>
<rect x="80.9" y="516.6" width="14.2" height="44.4" fill="#A8FF60" opacity="0.85"/>
<rect x="103.6" y="561.0" width="14.2" height="19.0" fill="#FF7A7A" opacity="0.85"/>
<rect x="126.2" y="526.1" width="14.2" height="34.9" fill="#A8FF60" opacity="0.85"/>
<rect x="148.9" y="561.0" width="14.2" height="9.5" fill="#FF7A7A" opacity="0.85"/>
<rect x="171.6" y="504.0" width="14.2" height="57.0" fill="#A8FF60" opacity="0.85"/>
<line x1="54" y1="561.0" x2="190" y2="561.0" stroke="#6E6E6E" stroke-width="1" opacity="0.5"/>
</g>
<g transform="rotate(-1.8 298.0 525.0)">
<rect x="216" y="434" width="164" height="182" fill="#0A0A0A"/>
<line x1="212" y1="434" x2="384" y2="434" stroke="#8C8C8C" stroke-width="2"/>
<line x1="212" y1="616" x2="384" y2="616" stroke="#8C8C8C" stroke-width="2"/>
<line x1="216" y1="430" x2="216" y2="620" stroke="#8C8C8C" stroke-width="2"/>
<line x1="380" y1="430" x2="380" y2="620" stroke="#8C8C8C" stroke-width="2"/>
<text x="228" y="456" fill="#FFFFFF" font-size="11" font-weight="700" letter-spacing="0.8">RISK vs REWARD</text>
<line x1="234" y1="468" x2="234" y2="596" stroke="#6E6E6E" stroke-width="1" opacity="0.5"/>
<line x1="234" y1="596" x2="368" y2="596" stroke="#6E6E6E" stroke-width="1" opacity="0.5"/>
<circle cx="274.5" cy="553.2" r="3.4" fill="#A8FF60" opacity="0.85"/>
<circle cx="289.5" cy="533.1" r="3.4" fill="#A8FF60" opacity="0.85"/>
<circle cx="318.7" cy="556.8" r="3.4" fill="#FF7A7A" opacity="0.85"/>
<circle cx="248.9" cy="574.8" r="3.4" fill="#A8FF60" opacity="0.85"/>
<circle cx="276.9" cy="567.1" r="3.4" fill="#FF7A7A" opacity="0.85"/>
<circle cx="360.8" cy="474.4" r="3.4" fill="#A8FF60" opacity="0.85"/>
<circle cx="342.7" cy="490.2" r="3.4" fill="#A8FF60" opacity="0.85"/>
<circle cx="320.2" cy="546.9" r="3.4" fill="#FF7A7A" opacity="0.85"/>
<circle cx="319.7" cy="474.4" r="3.4" fill="#A8FF60" opacity="0.85"/>
<circle cx="307.0" cy="500.9" r="3.4" fill="#A8FF60" opacity="0.85"/>
<circle cx="323.9" cy="554.5" r="3.4" fill="#FF7A7A" opacity="0.85"/>
<circle cx="333.8" cy="484.7" r="3.4" fill="#A8FF60" opacity="0.85"/>
<circle cx="281.7" cy="575.9" r="3.4" fill="#FF7A7A" opacity="0.85"/>
<circle cx="346.0" cy="487.5" r="3.4" fill="#A8FF60" opacity="0.85"/>
</g>
<rect x="40" y="642" width="152" height="56" fill="#0A0A0A"/>
<line x1="36" y1="642" x2="196" y2="642" stroke="#8C8C8C" stroke-width="2"/>
<line x1="36" y1="698" x2="196" y2="698" stroke="#8C8C8C" stroke-width="2"/>
<line x1="40" y1="638" x2="40" y2="702" stroke="#8C8C8C" stroke-width="2"/>
<line x1="192" y1="638" x2="192" y2="702" stroke="#8C8C8C" stroke-width="2"/>
<rect x="50" y="652" width="40" height="40" fill="#8C8C8C"/>
<rect x="48" y="650" width="40" height="40" fill="#A8A8A8"/>
<line x1="46" y1="650" x2="90" y2="650" stroke="#8C8C8C" stroke-width="2"/>
<line x1="46" y1="690" x2="90" y2="690" stroke="#8C8C8C" stroke-width="2"/>
<line x1="48" y1="648" x2="48" y2="692" stroke="#8C8C8C" stroke-width="2"/>
<line x1="88" y1="648" x2="88" y2="692" stroke="#8C8C8C" stroke-width="2"/>
<path d="M61.0,676.0 V668.0 L68.0,662.0 L75.0,668.0 V676.0 Z" fill="none" stroke="#0A0A0A" stroke-width="2"/>
<rect x="98" y="652" width="40" height="40" fill="#8C8C8C"/>
<rect x="96" y="650" width="40" height="40" fill="#111111"/>
<line x1="94" y1="650" x2="138" y2="650" stroke="#8C8C8C" stroke-width="2"/>
<line x1="94" y1="690" x2="138" y2="690" stroke="#8C8C8C" stroke-width="2"/>
<line x1="96" y1="648" x2="96" y2="692" stroke="#8C8C8C" stroke-width="2"/>
<line x1="136" y1="648" x2="136" y2="692" stroke="#8C8C8C" stroke-width="2"/>
<rect x="109.0" y="670.0" width="3" height="6" fill="#6E6E6E"/>
<rect x="114.0" y="665.0" width="3" height="11" fill="#6E6E6E"/>
<rect x="119.0" y="668.0" width="3" height="8" fill="#6E6E6E"/>
<rect x="146" y="652" width="40" height="40" fill="#8C8C8C"/>
<rect x="144" y="650" width="40" height="40" fill="#111111"/>
<line x1="142" y1="650" x2="186" y2="650" stroke="#8C8C8C" stroke-width="2"/>
<line x1="142" y1="690" x2="186" y2="690" stroke="#8C8C8C" stroke-width="2"/>
<line x1="144" y1="648" x2="144" y2="692" stroke="#8C8C8C" stroke-width="2"/>
<line x1="184" y1="648" x2="184" y2="692" stroke="#8C8C8C" stroke-width="2"/>
<rect x="157.0" y="664.0" width="14" height="11" fill="none" stroke="#6E6E6E" stroke-width="2"/>
<line x1="157.0" y1="669.0" x2="171.0" y2="669.0" stroke="#6E6E6E" stroke-width="2"/>
<path d="M200,670.0 q14,-5 28,0 t28,0" fill="none" stroke="#7E7E7E" stroke-width="2"/>
<rect x="341" y="652" width="40" height="40" fill="#8C8C8C"/>
<rect x="338" y="649" width="40" height="40" fill="#111111"/>
<line x1="336" y1="649" x2="380" y2="649" stroke="#8C8C8C" stroke-width="2"/>
<line x1="336" y1="689" x2="380" y2="689" stroke="#8C8C8C" stroke-width="2"/>
<line x1="338" y1="647" x2="338" y2="691" stroke="#8C8C8C" stroke-width="2"/>
<line x1="378" y1="647" x2="378" y2="691" stroke="#8C8C8C" stroke-width="2"/>
<line x1="351.0" y1="669.0" x2="365.0" y2="669.0" stroke="#6E6E6E" stroke-width="2"/>
<line x1="358.0" y1="662.0" x2="358.0" y2="676.0" stroke="#6E6E6E" stroke-width="2"/>
</svg>